<svg width="32" height="33" viewBox="0 0 32 33" fill="none" xmlns="http://www.w3.org/2000/svg">
<path d="M2.66666 5.83337H5.33333C6.06666 5.83337 6.66666 6.43337 6.66666 7.16671V19.1667C6.66666 19.9 6.06666 20.5 5.33333 20.5H2.66666V5.83337ZM29.1067 15.3267C29.2533 15.66 29.3333 16.02 29.3333 16.3934V17.8334C29.3333 19.3 28.1333 20.5 26.6667 20.5H19.3333L20.56 26.7C20.6267 26.9934 20.5867 27.3134 20.4533 27.58C20.1467 28.18 19.76 28.7267 19.28 29.2067L18.6667 29.8334L10.12 21.2867C9.61333 20.78 9.33333 20.1 9.33333 19.3934V8.95337C9.33333 7.23337 10.7333 5.83337 12.4533 5.83337H23.2533C24.2 5.83337 25.0667 6.32671 25.5467 7.12671L29.1067 15.3267Z" fill="#3A3541" fill-opacity="0.54"/>
</svg>
